<svg width="28" height="28" viewBox="0 0 28 28" fill="none" xmlns="http://www.w3.org/2000/svg">
<path d="M15.7697 14.3619L14.7019 15.4297L17.9498 18.6776L19.0176 17.6098L15.7697 14.3619Z" fill="#333333"/>
<path d="M24.6022 27.6855L16.8629 20.0091L17.9326 18.9394L24.6022 25.6091L25.8607 24.2877L19.2539 17.6181L20.2607 16.6113L28 24.2877L24.6022 27.6855Z" fill="#333333"/>
<path d="M8.93483 17.8697C3.96405 17.8697 0 13.8427 0 8.93483C0 3.96405 4.02697 0 8.93483 0C13.8427 0 17.8697 4.02697 17.8697 8.93483C17.9326 13.8427 13.9056 17.8697 8.93483 17.8697ZM8.93483 1.44719C4.84494 1.44719 1.44719 4.78202 1.44719 8.93483C1.44719 13.0876 4.78202 16.4225 8.93483 16.4225C13.0876 16.4225 16.4225 13.0247 16.4225 8.87191C16.4225 4.7191 13.0876 1.44719 8.93483 1.44719Z" fill="#333333"/>
<path d="M9.31238 14.6606V13.1505C11.2629 13.1505 12.8989 11.5774 12.8989 9.56396H14.409C14.3461 12.3954 12.0809 14.6606 9.31238 14.6606Z" fill="#333333"/>
</svg>
