<svg width="25" height="25" viewBox="0 0 25 25" fill="none" xmlns="http://www.w3.org/2000/svg">
<path d="M12.5 0C19.3926 0 25 5.60741 25 12.5C25 19.3926 19.3926 25 12.5 25C5.60741 25 0 19.3926 0 12.5C0 5.60741 5.60741 0 12.5 0ZM13.2324 6.13556C14.3467 6.08768 15.4497 5.93109 16.503 5.67646C16.3347 5.27782 16.1522 4.89502 15.9554 4.53224C15.1478 3.04413 14.1563 1.99986 13.2324 1.62163V6.13556ZM13.2324 7.60155V11.7676H17.8072C17.7427 10.1416 17.4656 8.52737 17.0073 7.0591C15.7927 7.36504 14.5176 7.55024 13.2324 7.60155ZM13.2324 13.2324V17.3985C14.5176 17.4498 15.7927 17.635 17.0073 17.9409C17.4656 16.4726 17.7427 14.8584 17.8072 13.2324H13.2324ZM13.2324 18.8644V23.3784C14.1563 23.0001 15.1478 21.9559 15.9554 20.4678C16.1522 20.105 16.3347 19.7222 16.503 19.3235C15.4497 19.0689 14.3469 18.9123 13.2324 18.8644ZM11.7676 18.8644C10.6533 18.9123 9.55029 19.0689 8.49705 19.3235C8.66528 19.7222 8.84781 20.105 9.04465 20.4678C9.85222 21.9559 10.8437 23.0001 11.7676 23.3784V18.8644ZM11.7676 17.3985V13.2324H7.1928C7.25727 14.8584 7.53441 16.4726 7.99274 17.9409C9.20734 17.635 10.4824 17.4498 11.7676 17.3985ZM11.7676 11.7676V7.60155C10.4824 7.55024 9.20734 7.36504 7.99274 7.0591C7.53441 8.52737 7.25727 10.1416 7.1928 11.7676H11.7676ZM11.7676 6.13556V1.62163C10.8437 1.99986 9.85222 3.04413 9.04465 4.53224C8.84781 4.89502 8.66528 5.27782 8.49705 5.67646C9.55029 5.93109 10.6533 6.08768 11.7676 6.13556ZM7.75719 3.83358C8.12397 3.15762 8.52242 2.56176 8.94241 2.05345C7.47795 2.55356 6.15139 3.35369 5.03578 4.37984C5.67207 4.72069 6.35777 5.01671 7.07912 5.26409C7.28378 4.76704 7.50999 4.28886 7.75719 3.83358ZM17.2428 3.83358C17.49 4.28886 17.7162 4.76704 17.9209 5.26409C18.6422 5.01671 19.3279 4.7205 19.9642 4.37984C18.8486 3.35369 17.522 2.55356 16.0576 2.05345C16.4776 2.56176 16.8758 3.15742 17.2428 3.83358ZM18.4164 6.64082C18.9163 8.24013 19.2102 9.98363 19.2736 11.7676H23.5102C23.3534 9.38702 22.4392 7.20997 21.0056 5.47695C20.2101 5.93319 19.3388 6.32343 18.4164 6.64082ZM19.2736 13.2324C19.2102 15.0166 18.9163 16.7599 18.4164 18.3592C19.3388 18.6766 20.2101 19.0668 21.0056 19.523C22.4392 17.79 23.3534 15.613 23.5102 13.2324H19.2736ZM17.9209 19.7359C17.7162 20.233 17.49 20.7111 17.2428 21.1664C16.8758 21.8424 16.4776 22.4382 16.0576 22.9465C17.522 22.4464 18.8486 21.6463 19.964 20.6202C19.3281 20.2795 18.6422 19.9833 17.9209 19.7359ZM7.75719 21.1664C7.50999 20.7111 7.28378 20.233 7.07912 19.7359C6.35777 19.9833 5.67207 20.2795 5.03578 20.6202C6.15139 21.6463 7.47795 22.4464 8.94241 22.9465C8.52242 22.4382 8.12416 21.8426 7.75719 21.1664ZM6.5836 18.3592C6.08368 16.7599 5.78976 15.0164 5.72643 13.2324H1.48983C1.64661 15.613 2.56081 17.79 3.99437 19.523C4.78992 19.0668 5.6612 18.6766 6.5836 18.3592ZM5.72643 11.7676C5.78976 9.98344 6.08368 8.24013 6.5836 6.64082C5.6612 6.32343 4.78992 5.93319 3.99437 5.47695C2.56081 7.20997 1.64661 9.38702 1.48983 11.7676H5.72643Z" fill="#333333"/>
</svg>
